<svg viewBox="0 0 24 24" fill="none" xmlns="http://www.w3.org/2000/svg"><path d="M21.7172 18.239L18.6056 3.44525C18.5654 3.25179 18.4873 3.06818 18.3759 2.90499C18.2645 2.74179 18.1219 2.60221 17.9564 2.49428C17.7909 2.38634 17.6057 2.31217 17.4114 2.27603C17.2171 2.23989 17.0176 2.24249 16.8244 2.28369L12.4359 3.22681C12.0478 3.3118 11.7089 3.54662 11.4929 3.8802C11.277 4.21377 11.2015 4.61911 11.2828 5.00806L14.3944 19.8018C14.4637 20.1393 14.6471 20.4427 14.9138 20.6609C15.1805 20.8791 15.5142 20.9988 15.8588 20.9999C15.9653 20.9998 16.0715 20.9885 16.1756 20.9662L20.5641 20.0231C20.9527 19.9379 21.292 19.7026 21.5079 19.3684C21.7239 19.0343 21.7991 18.6283 21.7172 18.239ZM12.75 4.7015C12.75 4.69587 12.75 4.69306 12.75 4.69306L17.1375 3.75556L17.4497 5.24337L13.0622 6.18744L12.75 4.7015ZM13.3706 7.65181L17.76 6.70962L18.0731 8.20025L13.6875 9.14337L13.3706 7.65181ZM13.9931 10.6115L18.3825 9.66837L19.6294 15.5971L15.24 16.5402L13.9931 10.6115ZM20.25 18.5568L15.8625 19.4943L15.5503 18.0065L19.9378 17.0624L20.25 18.5484C20.25 18.554 20.25 18.5568 20.25 18.5568ZM9.75 2.99994H5.25C4.85218 2.99994 4.47064 3.15797 4.18934 3.43928C3.90804 3.72058 3.75 4.10211 3.75 4.49994V19.4999C3.75 19.8978 3.90804 20.2793 4.18934 20.5606C4.47064 20.8419 4.85218 20.9999 5.25 20.9999H9.75C10.1478 20.9999 10.5294 20.8419 10.8107 20.5606C11.092 20.2793 11.25 19.8978 11.25 19.4999V4.49994C11.25 4.10211 11.092 3.72058 10.8107 3.43928C10.5294 3.15797 10.1478 2.99994 9.75 2.99994ZM5.25 4.49994H9.75V5.99994H5.25V4.49994ZM5.25 7.49994H9.75V16.4999H5.25V7.49994ZM9.75 19.4999H5.25V17.9999H9.75V19.4999Z" fill="currentColor"></path></svg>