<svg viewBox="0 0 16 16" fill="none" xmlns="http://www.w3.org/2000/svg"><path fill-rule="evenodd" clip-rule="evenodd" d="M8 1.59705C7.81102 1.59705 7.62598 1.65111 7.46673 1.75286C7.30952 1.85331 7.18391 1.99608 7.10431 2.16471L5.59234 5.21717C5.58937 5.22317 5.58652 5.22923 5.58381 5.23536C5.58313 5.23687 5.58207 5.23819 5.58072 5.23917C5.57938 5.24016 5.57781 5.24077 5.57615 5.24096C5.57035 5.24159 5.56456 5.24235 5.55879 5.2432L2.22967 5.7364C2.04566 5.7543 1.8702 5.82335 1.72323 5.93592C1.57116 6.0524 1.45613 6.21048 1.39207 6.391C1.32802 6.57153 1.31768 6.76676 1.36232 6.95304C1.40678 7.13859 1.50389 7.30735 1.64196 7.43901L4.07889 9.79027L4.08444 9.79554C4.08791 9.79879 4.09053 9.80286 4.09204 9.80738C4.09354 9.8119 4.0939 9.81673 4.09306 9.82141L4.09252 9.82453L3.51182 13.223C3.47991 13.4072 3.50011 13.5975 3.57041 13.7706C3.6408 13.9441 3.75848 14.0943 3.91003 14.2042C4.06159 14.314 4.24094 14.3792 4.42769 14.3921C4.61406 14.4051 4.80032 14.3656 4.96537 14.2781L4.96637 14.2776L7.96588 12.6923C7.97663 12.6877 7.98826 12.6852 8.00002 12.6852C8.01178 12.6852 8.0234 12.6877 8.03416 12.6923L11.0336 14.2776C11.1988 14.3653 11.3858 14.4052 11.5723 14.3921C11.759 14.3792 11.9384 14.314 12.09 14.2042C12.2415 14.0943 12.3592 13.9441 12.4296 13.7706C12.4999 13.5975 12.5202 13.4081 12.4884 13.224L12.4882 13.223L11.9075 9.82452L11.907 9.82141C11.9061 9.81673 11.9065 9.8119 11.908 9.80738C11.9094 9.80287 11.9121 9.79879 11.9155 9.79554L11.9211 9.79027L14.3581 7.43898C14.4961 7.30732 14.5932 7.13858 14.6377 6.95304C14.6823 6.76676 14.672 6.57153 14.6079 6.391C14.5439 6.21048 14.4289 6.0524 14.2768 5.93592C14.1298 5.82335 13.9544 5.7543 13.7704 5.7364L10.4412 5.2432C10.4354 5.24235 10.4297 5.24159 10.4239 5.24096C10.4222 5.24077 10.4206 5.24016 10.4193 5.23917C10.4179 5.23819 10.4169 5.23687 10.4162 5.23536C10.4135 5.22923 10.4106 5.22317 10.4077 5.21717L8.8957 2.1647C8.8161 1.99608 8.69049 1.8533 8.53328 1.75286C8.37402 1.65111 8.18898 1.59705 8 1.59705Z" fill="currentColor"></path></svg>