<svg viewBox="0 0 16 16" fill="none" xmlns="http://www.w3.org/2000/svg"><path fill-rule="evenodd" clip-rule="evenodd" d="M8 14.6667C11.6819 14.6667 14.6667 11.6819 14.6667 8.00004C14.6667 4.31815 11.6819 1.33337 8 1.33337C4.31811 1.33337 1.33334 4.31815 1.33334 8.00004C1.33334 11.6819 4.31811 14.6667 8 14.6667ZM8.59524 5.61909C8.59524 5.29035 8.32875 5.02385 8 5.02385C7.67126 5.02385 7.40476 5.29035 7.40476 5.61909V8.00004C7.40476 8.13929 7.45358 8.27413 7.54273 8.38111L9.92368 11.2382C10.1341 11.4908 10.5095 11.5249 10.762 11.3144C11.0146 11.104 11.0487 10.7287 10.8382 10.4761L8.59524 7.78454V5.61909Z" fill="currentColor"></path></svg>